<?xml version="1.0" encoding="utf-8"?>
<?xml-stylesheet type="text/xsl" href="rss1.xsl"?>
<rss version="2.0" xmlns:atom="http://www.w3.org/2005/Atom" xmlns:content="http://purl.org/rss/1.0/modules/content/" xmlns:dc="http://purl.org/dc/elements/1.1/" xmlns:media="http://search.yahoo.com/mrss/">
<channel>
 <title>Getty</title>
 <link>http://www.gettyimg.com/</link>
 <atom:link href="http://www.gettyimg.com/" rel="self" type="application/rss+xml" />

 
                <item>
                <title><![CDATA[【Unreleased/Unofficial (lossless)】PACK - Ariana Grande Fantasize (mini EP) 24bit/48kHz]]></title>
                <link><![CDATA[https://sharemania.us/threads/ariana-grande-fantasize-mini-ep-24bit-48khz.242468/]]></link>
                <description><![CDATA[<article>
<blockquote class="messageText SelectQuoteContainer ugc baseHtml">
<img src="https://i.imgur.com/GrIsu6Z.jpeg" class="bbCodeImage LbImage" alt="[​IMG]" data-url="https://i.imgur.com/GrIsu6Z.jpeg" style=""> <br>
<br>
<div style="text-align: center"><b>Ariana Grande - Fantasize<br>
Ariana Grande - Fantasize (Demo)<br>
<b>Ariana Grande - Fantasize (Demo Alternative)</b><br>
<b><b>Ariana Grande - Fantasize (Acapella)</b><br>
<b><b>Ariana Grande - Fantasize (Demo Acapella)</b><br>
<b><b>Ariana Grande - Fantasize (Official Instrumental)</b></b></b></b></b>​</div><b><br>
<b>NOTE: Demo version has different lyrics in the chorus "i think about boy, like all the time if you are mine."<br>
mixed by ME from pro tools.<br>
</b></b><br>
<div class="bbCodeBlock bbCodeVfcHH HiddenContent">
<div class="attribution type">Hidden Content:</div>
<blockquote>You must reply before you can see the hidden data contained here.</blockquote>
</div>
<div class="messageTextEndMarker">&nbsp;</div>
</blockquote>
</article>]]></description>
                <author><![CDATA[Kauan0606]]></author>
                </item>

                
                <item>
                <title><![CDATA[【Apple Music】WEB-RiP - Ioana Ignat - Vocea inimii (1080p)]]></title>
                <link><![CDATA[https://sharemania.us/threads/ioana-ignat-vocea-inimii-1080p.242467/]]></link>
                <description><![CDATA[<article>
<blockquote class="messageText SelectQuoteContainer ugc baseHtml">
<img src="https://i.postimg.cc/8PPmc21n/Ioana-Ignat-Vocea-inimii-mp4.jpg" class="bbCodeImage LbImage" alt="[​IMG]" data-url="https://i.postimg.cc/8PPmc21n/Ioana-Ignat-Vocea-inimii-mp4.jpg" style=""><br>
<br>
<div class="bbCodeBlock bbCodeCode">
<div class="type">Code:</div>
<pre>General
Complete name                  : G:\Новая папка\Ioana Ignat - Vocea inimii.mp4
Format                         : MPEG-4
Format profile                 : Base Media
Codec ID                       : isom (isom/iso2/avc1/mp41)
File size                      : 203 MiB
Duration                       : 2 min 41 s
Overall bit rate               : 10.5 Mb/s
Frame rate                     : 25.000 FPS
Movie name                     : Vocea inimii
Performer                      : Ioana Ignat
Genre                          : Pop
ContentType                    : Music Video
Recorded date                  : 2023-09-08 07:00:00 UTC
Writing application            : Lavf56.30.100
Copyright                      : ℗ 2023 MediaPro Music, a division of Universal Music Romania

Video
ID                             : 1
Format                         : AVC
Format/Info                    : Advanced Video Codec
Format profile                 : High@L4
Format settings                : CABAC / 5 Ref Frames
Format settings, CABAC         : Yes
Format settings, Reference fra : 5 frames
Format settings, Slice count   : 8 slices per frame
Codec ID                       : avc1
Codec ID/Info                  : Advanced Video Coding
Duration                       : 2 min 41 s
Bit rate                       : 10.3 Mb/s
Width                          : 1 920 pixels
Height                         : 858 pixels
Display aspect ratio           : 2.25:1
Frame rate mode                : Constant
Frame rate                     : 25.000 FPS
Color space                    : YUV
Chroma subsampling             : 4:2:0
Bit depth                      : 8 bits
Scan type                      : Progressive
Bits/(Pixel*Frame)             : 0.250
Stream size                    : 198 MiB (97%)
Color range                    : Limited
Color primaries                : BT.709
Transfer characteristics       : BT.709
Matrix coefficients            : BT.709
Codec configuration box        : avcC

Audio
ID                             : 2
Format                         : AAC LC
Format/Info                    : Advanced Audio Codec Low Complexity
Codec ID                       : mp4a-40-2
Duration                       : 2 min 41 s
Duration_LastFrame             : -13 ms
Bit rate mode                  : Constant
Bit rate                       : 265 kb/s
Channel(s)                     : 2 channels
Channel layout                 : L R
Sampling rate                  : 48.0 kHz
Frame rate                     : 46.875 FPS (1024 SPF)
Compression mode               : Lossy
Stream size                    : 5.02 MiB (2%)
Default                        : Yes
Alternate group                : 1

</pre>
</div>
<div class="bbCodeBlock bbCodeVfcHH HiddenContent">
<div class="attribution type">Hidden Content:</div>
<blockquote>You must either reply or click 'Like' to see the hidden information contained here.</blockquote>
</div>
<div class="messageTextEndMarker">&nbsp;</div>
</blockquote>
</article>]]></description>
                <author><![CDATA[vitalya3]]></author>
                </item>

                
                <item>
                <title><![CDATA[【Apple Music】WEB-RiP - Iordan &amp; Ioana Ignat - Esti stare (1080p)]]></title>
                <link><![CDATA[https://sharemania.us/threads/iordan-ioana-ignat-esti-stare-1080p.242470/]]></link>
                <description><![CDATA[<article>
<blockquote class="messageText SelectQuoteContainer ugc baseHtml">
<img src="https://i.postimg.cc/m2yMY8r1/Iordan-Ioana-Ignat-Esti-stare-mp4.jpg" class="bbCodeImage LbImage" alt="[​IMG]" data-url="https://i.postimg.cc/m2yMY8r1/Iordan-Ioana-Ignat-Esti-stare-mp4.jpg" style=""><br>
<br>
<div class="bbCodeBlock bbCodeCode">
<div class="type">Code:</div>
<pre>General
Complete name                  : G:\Новая папка\Iordan &amp; Ioana Ignat - Esti stare.mp4
Format                         : MPEG-4
Format profile                 : Base Media
Codec ID                       : isom (isom/iso2/avc1/mp41)
File size                      : 132 MiB
Duration                       : 2 min 43 s
Overall bit rate               : 6 790 kb/s
Frame rate                     : 25.000 FPS
Movie name                     : Esti stare
Performer                      : Iordan &amp; Ioana Ignat
Genre                          : Dance
ContentType                    : Music Video
Recorded date                  : 2021-08-19 07:00:00 UTC
Writing application            : Lavf56.30.100
Copyright                      : ℗ 2019 Cat Music

Video
ID                             : 1
Format                         : AVC
Format/Info                    : Advanced Video Codec
Format profile                 : High@L4
Format settings                : CABAC / 4 Ref Frames
Format settings, CABAC         : Yes
Format settings, Reference fra : 4 frames
Format settings, Slice count   : 8 slices per frame
Codec ID                       : avc1
Codec ID/Info                  : Advanced Video Coding
Duration                       : 2 min 43 s
Bit rate                       : 6 526 kb/s
Width                          : 1 920 pixels
Height                         : 960 pixels
Display aspect ratio           : 2.000
Frame rate mode                : Constant
Frame rate                     : 25.000 FPS
Color space                    : YUV
Chroma subsampling             : 4:2:0
Bit depth                      : 8 bits
Scan type                      : Progressive
Bits/(Pixel*Frame)             : 0.142
Stream size                    : 127 MiB (96%)
Color range                    : Limited
Color primaries                : BT.709
Transfer characteristics       : BT.709
Matrix coefficients            : BT.709
Codec configuration box        : avcC

Audio
ID                             : 2
Format                         : AAC LC
Format/Info                    : Advanced Audio Codec Low Complexity
Codec ID                       : mp4a-40-2
Duration                       : 2 min 43 s
Bit rate mode                  : Constant
Bit rate                       : 265 kb/s
Channel(s)                     : 2 channels
Channel layout                 : L R
Sampling rate                  : 48.0 kHz
Frame rate                     : 46.875 FPS (1024 SPF)
Compression mode               : Lossy
Stream size                    : 5.06 MiB (4%)
Default                        : Yes
Alternate group                : 1

</pre>
</div>
<div class="bbCodeBlock bbCodeVfcHH HiddenContent">
<div class="attribution type">Hidden Content:</div>
<blockquote>You must either reply or click 'Like' to see the hidden information contained here.</blockquote>
</div>
<div class="messageTextEndMarker">&nbsp;</div>
</blockquote>
</article>]]></description>
                <author><![CDATA[vitalya3]]></author>
                </item>

                
                <item>
                <title><![CDATA[【Apple Music】WEB-RiP - Jennifer Lopez - Rebound AM 1632p AAC2.0 4K H.265]]></title>
                <link><![CDATA[https://sharemania.us/threads/jennifer-lopez-rebound-am-1632p-aac2-0-4k-h-265.242471/]]></link>
                <description><![CDATA[<article>
<blockquote class="messageText SelectQuoteContainer ugc baseHtml">
<div style="text-align: center"><img src="https://i.ibb.co/s1StgBR/Jennifer-Lopez-Rebound-AM-1632p-AAC2-0-4-K-H-265-mp4.png" class="bbCodeImage LbImage" alt="[​IMG]" data-url="https://i.ibb.co/s1StgBR/Jennifer-Lopez-Rebound-AM-1632p-AAC2-0-4-K-H-265-mp4.png" style=""><br>
<div class="bbCodeBlock bbCodeVfcHH HiddenContent">
<div class="attribution type">Hidden Content:</div>
<blockquote>You must either reply or click 'Like' to see the hidden information contained here.</blockquote>
</div></div>
<div class="messageTextEndMarker">&nbsp;</div>
</blockquote>
</article>]]></description>
                <author><![CDATA[DarlingBeMyValentine]]></author>
                </item>

                
                <item>
                <title><![CDATA[【Albums (lossless)】ALAC - Iwan Fals - In Love (2005) [ALAC, 16bit/44.1kHz, 1.4Mbps]]]></title>
                <link><![CDATA[https://sharemania.us/threads/iwan-fals-in-love-2005-alac-16bit-44-1khz-1-4mbps.242469/]]></link>
                <description><![CDATA[<article>
<blockquote class="messageText SelectQuoteContainer ugc baseHtml">
<img src="https://is1-ssl.mzstatic.com/image/thumb/Music124/v4/f9/35/b3/f935b34f-f103-b89b-bfe3-c9f88aeb3d10/Iwan_Fals_-_In_Love.jpg/1200x1200bf-60.jpg" class="bbCodeImage LbImage" alt="[​IMG]" data-url="https://is1-ssl.mzstatic.com/image/thumb/Music124/v4/f9/35/b3/f935b34f-f103-b89b-bfe3-c9f88aeb3d10/Iwan_Fals_-_In_Love.jpg/1200x1200bf-60.jpg" style=""><br>
<br>
<span style="font-size: 18px"><b>Artist: Iwan Fals</b><br>
<b>Album: In Love</b><br>
Countries: Indonesia<br>
Years: 2005<br>
Source: Apple Music<br>
Format: Apple Lossless Audio Codec w/ Core Media Audio<br>
.m4a [ALAC, 16bit/44.1kHz, 1.4Mbps]<br>
</span><br>
<br>
<span style="color: #ff0000"><b>Tracklist:</b><br>
</span><br>
<i>1.Ijinkan Aku Menyayangimu<br>
2. Selamat Tidur Sayang (new version)<br>
3. Rinduku (new version)<br>
4. Aku Bukan Pilihan<br>
5. Buku Ini Aku Pinjam<br>
6. Kumenanti Seorang Kekasih<br>
7. Antara Aku, Kau, Dan Bekas Pacarmu (new version)<br>
8. Kemesraan<br>
9. Yang Terlupakan<br>
10. Nyanyianmu<br>
11. Sebelum Kau Bosan<br>
12. Yang Tersendiri<br>
13. Jangan Tutup Dirimu<br>
14. Maaf Cintaku<br>
15. Entaah<br>
16. Sesuatu Yang Tertunda<br>
</i><br>
<br>
Link Download:<br>
<br>
<div class="bbCodeBlock bbCodeVfcHH HiddenContent">
<div class="attribution type">Hidden Content:</div>
<blockquote>You must either reply or click 'Like' to see the hidden information contained here.</blockquote>
</div>
<div class="messageTextEndMarker">&nbsp;</div>
</blockquote>
</article>]]></description>
                <author><![CDATA[andammm777]]></author>
                </item>

                </channel></rss>